<svg
   version="1.1"
   id="drone-icon-svg"
   viewBox="0 0 200 200"
   xmlns="http://www.w3.org/2000/svg"
   xmlns:svg="http://www.w3.org/2000/svg"><g
     transform="rotate(0, 100, 90)"
     id="drone-svg-path"><path
       d="m 99 30 -52.55,106.22 52.55,-27.99 z m 3.76,-8.95 58.8,118.84 c 0.47,0.95 0.08,2.11 -0.88,2.58 -0.58,0.29 -1.23,0.25 -1.76,-0.04 v 0.01 l -57.98,-30.87 -57.98,30.88 -2.64,-2.56 58.89,-119.02 h 0.01 c 0.31,-0.64 0.96,-1.08 1.72,-1.08 0,0 0,0 0,0 0.81,0 1.53,0.5 1.82,1.26 z"
       id="path2" /><path
       fill="#f9f9f9"
       d="m 99 30 -52.55,106.219999 52.55,-27.989999 v -78.23"
       id="path3000" /></g></svg>
