<svg
   version="1.1"
   id="setpoint-svg"
   viewBox="0 0 375 560"
   xmlns="http://www.w3.org/2000/svg"
   xmlns:svg="http://www.w3.org/2000/svg">
<path
   style="fill:#2095ff;stroke:#ffffff;stroke-width:10;stroke-miterlimit:4;stroke-dasharray:none;stroke-opacity:1"
   d="M 182.90399,548.40373 C 165.63357,522.39681 135.48453,474.27216 115.56111,440.90946 52.575228,335.43663 14.956221,255.92238 6.6982512,210.8092 2.9022044,190.07138 5.8015639,156.45432 13.759657,128.93444 25.341847,88.882135 50.209288,55.351263 84.500982,33.547941 94.01387,27.499469 113.00285,18.652774 124.6095,14.861989 157.78658,4.0261696 194.40456,2.0722359 229.86264,9.2456828 c 19.0019,3.8442292 42.34813,12.9952212 58.73198,23.0210932 45.31011,27.726877 73.00919,73.605924 80.10354,132.678524 0.73804,6.14534 1.26455,16.12509 1.29794,24.60148 0.0605,15.2923 -0.40113,18.76773 -4.6981,35.3878 -12.00948,46.45077 -52.55181,128.33387 -113.64269,229.52347 -22.08347,36.57862 -62.74625,100.55022 -63.90811,100.54172 -0.25588,-0.002 -2.43532,-2.97007 -4.84321,-6.59604 z M 199.11537,247.272 c 17.05371,-2.88855 33.36216,-13.50797 42.41827,-27.62094 20.09009,-31.30843 8.59994,-72.0567 -24.88568,-88.25391 -10.70116,-5.17626 -16.88272,-6.57855 -28.99893,-6.57855 -7.83514,0 -11.14115,0.32138 -15.78421,1.53447 -22.65434,5.91873 -39.8789,22.6491 -45.97248,44.65341 -1.24889,4.50984 -1.57981,7.72104 -1.57981,15.33138 0,7.61034 0.33092,10.82148 1.57981,15.33132 6.1217,22.10593 23.57023,39.16056 45.60542,44.5759 9.70177,2.38434 17.8214,2.68626 27.61761,1.02692 z"
   id="setpoint-svg-path" /></svg>
