<svg class="svg-icon" style="width: 1em; height: 1em;vertical-align: middle;fill: currentColor;overflow: hidden;" viewBox="0 0 1024 1024" version="1.1" xmlns="http://www.w3.org/2000/svg"><path d="M229.591906 805.792781l56.980444-208.399379 92.99026-53.780577 14.152535 24.468245-82.938379 47.967861-34.830124 127.386008 120.13731-75.184636 14.995845 23.961316zM744.5972 800.889333L560.989255 690.771867l14.537914-24.242106 121.541257 72.892153-37.24039-126.702881-83.833513-46.383945 13.686124-24.733958 93.99281 52.006327zM483.74958 460.401194c-30.07084 0-54.767108-24.467302-55.051666-54.540968-0.139452-14.705634 5.456547-28.586802 15.75718-39.084366 10.301576-10.498505 24.073444-16.355506 38.780962-16.494958l0.531426-0.002827c30.069897 0 54.765223 24.46636 55.049782 54.539084 0.288327 30.360109-24.177091 55.293823-54.5372 55.581209l-0.530484 0.002826z m0.017902-81.855738l-0.262886 0.000942c-7.158243 0.067842-13.859497 2.919078-18.872246 8.027936-5.012749 5.107916-7.73584 11.862877-7.667998 19.019236 0.13851 14.634965 12.154031 26.541186 26.785228 26.541186l0.262886-0.000942c14.773475-0.140395 26.678754-12.273697 26.539302-27.048115-0.139452-14.634965-12.154974-26.540244-26.784286-26.540243z" fill="#000000" /><path d="M399.32622 696.841816l-3.166888-9.943522c-18.385104-57.72576-27.94419-118.678713-28.410603-181.166586-0.941304-125.855801 35.619726-246.463292 102.946032-339.604312l11.286223-15.613016 11.504824 15.451892c68.705753 92.279807 107.061762 212.409579 108.003066 338.260669 0.46547 62.302249-8.132525 123.203379-25.553712 181.012057l-3.000112 9.955772-173.60883 1.647046z m82.997741-497.817784c-56.614852 85.87536-87.150219 193.879369-86.308793 306.495671 0.418357 56.063638 8.494348 110.797768 24.01314 162.85686l131.74107-1.248476c14.655695-52.117512 21.86953-106.796049 21.453057-162.68914-0.841426-112.628552-32.995571-220.251893-90.898474-305.414915zM333.453801 925.083012h-0.001885c-29.031542-0.000942-54.224374-20.694549-59.90329-49.205971-3.190445-16.016298 0.047112-32.316212 9.11623-45.897746 9.069118-13.580592 22.885271-22.81743 38.901569-26.006933a61.281797 61.281797 0 0 1 16.846417-0.991243c8.85617-14.833779 23.369586-25.12499 40.50433-28.538747a61.556933 61.556933 0 0 1 12.000445-1.188173c20.891479 0 40.370531 10.77741 51.533319 28.318262 21.350353 6.543899 37.726589 24.518184 42.112744 46.540358 6.585357 33.061528-14.955329 65.318379-48.016857 71.905621l-0.535196 0.106474-91.110479 3.877342a61.570124 61.570124 0 0 1-11.447347 1.080756z m0.097051-108.163247c-3.076433 0-6.179249 0.308114-9.222704 0.914921-12.314213 2.452666-22.936153 9.553432-29.908773 19.99446-6.972621 10.44197-9.462035 22.973843-7.008426 35.288056 4.366368 21.921354 23.730466 37.831178 46.04191 37.83212h0.000942c3.078318 0 6.186787-0.307172 9.238722-0.915863l0.535196-0.106474 91.074674-3.875458c25.126875-5.29448 41.429615-29.930445 36.400848-55.177927-3.522116-17.683131-17.098939-31.972292-34.589851-36.401791l-2.916252-0.73872-1.489691-2.612849c-8.340762-14.637792-23.970739-23.731408-40.78983-23.731408a47.404397 47.404397 0 0 0-9.239665 0.915863c-14.459707 2.881388-26.493131 12.135187-33.012531 25.388819l-2.316041 4.709346-5.177642-0.856502a46.844703 46.844703 0 0 0-7.620886-0.626593z" fill="#000000" /><path d="M501.686175 846.089817c-22.145608 0.000942-41.223264-16.781402-43.580763-39.284121-2.518624-24.048945 14.996788-45.665954 39.044791-48.18552a43.878513 43.878513 0 0 1 10.723702 0.187507c7.298638-9.372521 17.980881-15.340708 29.979441-16.596721a43.790884 43.790884 0 0 1 43.199154 22.839101c14.410711 6.245207 24.585083 19.957713 26.234014 35.696991l-14.056427 1.47273c-1.188172-11.337104-8.904225-21.124214-19.659021-24.933714l-2.835218-1.003492-1.24188-2.739109c-5.291654-11.668775-17.422129-18.604648-30.167891-17.275139-9.271701 0.970513-17.386324 6.097274-22.263389 14.06208l-2.739109 4.474726-5.07588-1.327624a29.614793 29.614793 0 0 0-10.624766-0.799967c-16.296145 1.708292-28.167503 16.357391-26.460153 32.656363 1.708292 16.297087 16.351737 28.155253 32.654479 26.45921l1.47273 14.056426a44.436322 44.436322 0 0 1-4.603814 0.240273z" fill="#000000" /><path d="M451.569051 783.119515l-21.945852-1.091121c-0.501275 0.036748-1.005377 0.056535-1.504767 0.056535a20.009537 20.009537 0 0 1-19.936983-17.971458 19.928503 19.928503 0 0 1 4.366368-14.722594 19.928503 19.928503 0 0 1 13.497674-7.322194 20.180083 20.180083 0 0 1 2.348077-0.108359c3.203636-3.188561 7.402285-5.204025 12.029655-5.689281a20.224369 20.224369 0 0 1 2.10592-0.110243c6.865205 0 13.208405 3.537192 16.861493 9.210455 5.83533 3.098105 9.884161 8.974893 10.583307 15.64788a19.928503 19.928503 0 0 1-4.365426 14.721652 19.934157 19.934157 0 0 1-13.496732 7.322193l-0.542734 0.056535z m-22.273753-15.258732l21.781901 1.082641a5.885269 5.885269 0 0 0 3.550383-2.101209 5.889038 5.889038 0 0 0 1.289935-4.349407 5.964417 5.964417 0 0 0-3.925397-4.976002l-2.835219-1.003492-1.24188-2.740051a5.942746 5.942746 0 0 0-6.019067-3.444852 5.893749 5.893749 0 0 0-4.44269 2.807894l-2.73911 4.475668-5.076821-1.327624a5.961591 5.961591 0 0 0-2.121938-0.158298c-1.572609 0.164893-2.988804 0.932824-3.985701 2.163397s-1.454828 2.775857-1.289935 4.351292a5.930496 5.930496 0 0 0 6.513747 5.278462l0.541792-0.058419zM648.0999 963.024433l-0.54556-0.026383-101.674-5.058919a68.706696 68.706696 0 0 1-6.578761 0.318479c-34.746264 0-63.68264-26.093619-67.309345-60.695719-3.890534-37.158414 23.170772-70.555382 60.325417-74.448743a68.01226 68.01226 0 0 1 19.222761 0.72176c11.284338-15.716664 28.488809-25.757237 47.926402-27.791546a68.484325 68.484325 0 0 1 7.13186-0.37313c25.49812 0 48.866763 14.455938 60.350858 37.077381 23.049222 9.339543 39.414151 30.923572 42.016635 55.776254 3.894303 37.153703-23.167003 70.548787-60.323533 74.444974l-0.542734 0.055592z m-102.591747-19.25574l0.544618 0.026383 101.642906 5.057035c29.135189-3.341204 50.27919-29.629868 47.215006-58.857398-2.141725-20.455219-16.06341-38.111967-35.466141-44.98471l-2.835218-1.003492-1.24188-2.738167c-8.667721-19.115345-27.810391-31.466306-48.76877-31.466306-1.876954 0-3.780291 0.098936-5.660072 0.295865-16.727694 1.750693-31.368312 10.996953-40.166063 25.367148l-2.740052 4.474726-5.075879-1.327624a53.788114 53.788114 0 0 0-19.169053-1.443521c-29.401845 3.082087-50.819097 29.512088-47.739837 58.919586 2.870081 27.384496 25.763833 48.03476 53.252918 48.03476 1.877896 0 3.783118-0.099878 5.662899-0.296808l0.544618-0.057477z" fill="#000000" /></svg>
